<?xml version="1.0" standalone="no"?>
<!DOCTYPE svg PUBLIC "-//W3C//DTD SVG 20010904//EN"
 "http://www.w3.org/TR/2001/REC-SVG-20010904/DTD/svg10.dtd">
<svg version="1.0" xmlns="http://www.w3.org/2000/svg"
 width="500.000000pt" height="500.000000pt" viewBox="0 0 500.000000 500.000000"
 preserveAspectRatio="xMidYMid meet">
<metadata>
Created by potrace 1.14, written by Peter Selinger 2001-2017
</metadata>
<g transform="translate(0.000000,500.000000) scale(0.100000,-0.100000)"
fill="#000000" stroke="none">
<path d="M1240 4929 c-51 -31 -109 -89 -131 -131 -19 -37 -19 -83 -17 -2290
l3 -2253 22 -41 c24 -45 89 -108 131 -127 20 -9 191 -13 648 -15 550 -3 622
-1 634 13 7 8 29 15 49 15 20 1 49 7 65 13 27 12 31 20 47 105 10 50 21 155
24 234 11 248 54 641 80 743 1 6 65 22 142 37 203 40 373 97 458 154 84 57
201 173 233 232 32 57 21 53 -18 -8 -40 -62 -191 -176 -305 -231 -146 -70
-470 -141 -695 -151 l-55 -2 0 34 0 35 123 7 c68 4 127 10 130 14 4 3 -53 3
-125 -1 l-133 -7 0 116 0 115 383 3 382 3 110 38 c61 21 129 49 151 62 55 33
157 145 199 220 34 61 101 232 130 331 2 7 21 18 42 24 38 13 133 78 133 92 0
4 -33 -10 -72 -30 -72 -36 -74 -36 -217 -40 -157 -4 -225 7 -342 54 -94 38
-92 23 3 -18 99 -43 184 -65 291 -73 42 -4 77 -9 77 -12 0 -18 -130 -219 -180
-280 -77 -93 -157 -134 -305 -158 -118 -19 -153 -15 -242 27 -81 38 -141 97
-177 174 -40 85 -43 110 -15 125 30 16 48 39 49 62 0 31 -29 30 -88 -1 -76
-41 -207 -88 -265 -97 l-46 -7 -3 88 -3 89 -32 3 c-32 3 -33 5 -33 49 l0 46
58 -7 c32 -4 69 -2 83 3 18 8 13 9 -23 4 l-48 -6 0 39 c0 22 -3 147 -5 279 -8
372 -10 977 -5 1570 l5 540 -100 6 -100 5 98 2 97 2 0 84 0 85 -52 4 -53 3 53
2 c28 1 52 7 52 12 0 7 -217 10 -632 10 -625 0 -633 0 -668 -21z m105 -208
c-3 -6 -11 -11 -17 -11 -6 0 -6 6 2 15 14 17 26 13 15 -4z m-20 -93 c-2 -35
-4 -166 -6 -293 l-2 -230 -9 284 c-5 157 -6 291 -3 299 11 31 22 -2 20 -60z
m-8 -560 c-3 -7 -5 -2 -5 12 0 14 2 19 5 13 2 -7 2 -19 0 -25z m1090 -1774 c6
-15 7 -15 19 1 21 29 44 11 44 -35 0 -29 -4 -40 -15 -40 -8 0 -15 5 -15 10 0
13 -32 9 -41 -4 -4 -5 -14 -6 -23 -3 -16 6 -23 67 -9 80 12 12 34 7 40 -9z
m208 -441 c56 -88 132 -190 182 -246 18 -20 33 -42 33 -47 0 -6 -54 -10 -140
-10 l-140 0 0 190 c0 105 3 190 8 190 4 0 30 -35 57 -77z m-855 -308 c0 -18
11 -19 45 -3 21 10 28 9 35 -2 7 -11 14 -12 35 -2 40 19 45 15 45 -33 0 -49
-11 -56 -46 -30 -25 19 -34 19 -34 0 0 -19 -19 -19 -44 0 -25 19 -36 19 -36 0
0 -8 -7 -15 -15 -15 -11 0 -15 11 -15 43 0 24 3 47 7 50 11 12 23 8 23 -8z
m728 -775 c17 -11 32 -22 32 -25 0 -8 -63 -45 -77 -45 -9 0 -13 16 -13 45 0
51 9 55 58 25z"/>
<path d="M2590 1816 c0 -13 60 -125 71 -132 6 -4 -6 24 -26 62 -42 76 -45 80
-45 70z"/>
<path d="M3353 4603 c9 -2 25 -2 35 0 9 3 1 5 -18 5 -19 0 -27 -2 -17 -5z"/>
<path d="M3288 4593 c6 -2 18 -2 25 0 6 3 1 5 -13 5 -14 0 -19 -2 -12 -5z"/>
<path d="M3336 4551 c-81 -18 -203 -67 -193 -77 3 -3 20 4 38 15 41 24 137 49
227 60 122 15 315 -22 422 -80 44 -24 50 -26 30 -8 -94 84 -350 127 -524 90z"/>
<path d="M3074 4434 c-18 -14 -18 -15 4 -4 12 6 22 13 22 15 0 8 -5 6 -26 -11z"/>
<path d="M3476 4381 c-3 -5 -34 -11 -68 -13 -35 -3 -64 -10 -66 -16 -2 -7 -11
-12 -20 -13 -15 0 -14 -1 1 -8 25 -9 23 -25 -5 -33 -13 -3 13 -4 57 -2 55 3
74 1 60 -5 -11 -5 -33 -10 -49 -10 -54 -2 -180 -42 -271 -87 -104 -51 -97 -50
35 4 177 73 324 93 485 68 55 -9 114 -19 130 -22 22 -4 26 -3 16 4 -8 6 -43
16 -78 22 -35 7 -63 16 -63 21 0 8 49 5 109 -7 13 -3 27 0 31 6 6 9 13 9 30 0
26 -14 38 -6 21 14 -40 48 -334 112 -355 77z m32 -28 c-15 -2 -42 -2 -60 0
-18 2 -6 4 27 4 33 0 48 -2 33 -4z"/>
<path d="M3760 4363 c8 -3 30 -12 48 -19 17 -7 32 -11 32 -8 0 7 -67 34 -82
33 -8 0 -8 -3 2 -6z"/>
<path d="M3278 4323 c7 -3 16 -2 19 1 4 3 -2 6 -13 5 -11 0 -14 -3 -6 -6z"/>
<path d="M3907 4274 c12 -17 30 -37 40 -45 13 -10 12 -6 -4 17 -12 17 -30 37
-40 45 -13 10 -12 6 4 -17z"/>
<path d="M3225 4274 c-22 -8 -46 -17 -54 -19 -8 -3 -12 -7 -10 -10 3 -2 34 7
69 20 36 13 58 24 50 24 -8 0 -33 -7 -55 -15z"/>
<path d="M3390 4199 c-142 -12 -190 -24 -291 -76 -103 -52 -191 -129 -238
-207 -29 -48 -32 -60 -23 -80 6 -14 19 -27 30 -30 23 -8 180 52 277 105 82 44
324 141 410 164 167 43 412 -4 489 -95 29 -36 35 -21 12 34 -19 45 -112 135
-163 157 -91 39 -253 48 -503 28z"/>
<path d="M3633 4030 c-88 -18 -245 -90 -274 -127 -9 -12 -3 -10 18 5 61 43
186 92 295 116 67 15 33 20 -39 6z"/>
<path d="M3602 3989 c-35 -11 -62 -22 -60 -24 2 -3 20 0 39 6 19 6 70 17 114
24 80 13 80 13 25 13 -30 1 -84 -8 -118 -19z"/>
<path d="M3883 3671 c76 -81 125 -152 167 -244 16 -34 29 -54 29 -45 3 56
-147 276 -229 337 -23 17 -12 1 33 -48z"/>
<path d="M3815 3620 c56 -29 136 -119 186 -211 24 -43 45 -77 47 -75 8 9 -70
146 -114 199 -45 56 -115 107 -145 107 -7 0 4 -9 26 -20z"/>
<path d="M2771 3550 c0 -8 4 -22 9 -30 12 -18 12 -2 0 25 -6 13 -9 15 -9 5z"/>
<path d="M2793 3480 c18 -62 60 -180 63 -177 5 5 -44 155 -57 176 -9 13 -10
13 -6 1z"/>
<path d="M3890 3466 c0 -2 8 -10 18 -17 15 -13 16 -12 3 4 -13 16 -21 21 -21
13z"/>
<path d="M3270 3445 c-36 -8 -111 -37 -167 -65 -87 -42 -103 -53 -103 -73 0
-75 227 -176 398 -177 84 0 252 26 332 51 68 21 130 57 130 74 -1 34 -174 163
-247 185 -62 19 -268 21 -343 5z"/>
<path d="M4130 3304 c-19 -14 -59 -36 -88 -51 -29 -14 -50 -28 -47 -31 6 -7
153 68 167 86 19 22 4 21 -32 -4z"/>
<path d="M2860 3281 c0 -6 4 -13 10 -16 6 -3 7 1 4 9 -7 18 -14 21 -14 7z"/>
<path d="M2906 3271 c10 -37 33 -88 33 -71 0 8 -9 33 -20 55 -10 22 -16 29
-13 16z"/>
<path d="M2891 3215 c0 -5 6 -21 14 -35 8 -14 14 -20 14 -15 0 6 -6 21 -14 35
-8 14 -14 21 -14 15z"/>
<path d="M3070 3154 c0 -16 184 -88 260 -101 124 -22 331 0 463 49 32 11 56
23 54 25 -3 2 -67 -8 -143 -22 -77 -15 -195 -29 -264 -32 -133 -6 -157 -1
-317 65 -29 12 -53 19 -53 16z"/>
<path d="M3920 2733 c-27 -10 -71 -57 -91 -95 -36 -71 -13 -172 45 -192 56
-20 190 36 215 90 25 55 7 137 -39 179 -20 18 -102 30 -130 18z"/>
<path d="M3150 2505 c0 -3 12 -44 26 -92 21 -72 25 -102 21 -163 -3 -42 -12
-92 -20 -112 -19 -44 -82 -115 -137 -153 -22 -15 -38 -30 -36 -32 8 -9 101 38
129 65 16 15 41 47 55 72 25 41 27 54 27 150 0 89 -4 117 -28 188 -25 70 -37
96 -37 77z"/>
<path d="M2528 2243 c7 -3 16 -2 19 1 4 3 -2 6 -13 5 -11 0 -14 -3 -6 -6z"/>
<path d="M3092 2170 c0 -19 2 -27 5 -17 2 9 2 25 0 35 -3 9 -5 1 -5 -18z"/>
<path d="M3073 2145 c0 -27 2 -38 4 -22 2 15 2 37 0 50 -2 12 -4 0 -4 -28z"/>
<path d="M4032 2163 c-6 -15 -31 -77 -57 -137 -50 -121 -56 -155 -7 -49 47
104 85 203 79 209 -2 3 -9 -8 -15 -23z"/>
<path d="M3628 2052 c-46 -59 -111 -122 -162 -156 -44 -30 -37 -34 12 -7 61
32 206 190 190 206 -2 3 -21 -17 -40 -43z"/>
<path d="M3203 1833 c15 -2 37 -2 50 0 12 2 0 4 -28 4 -27 0 -38 -2 -22 -4z"/>
</g>
</svg>
